<svg width="21" height="21" viewBox="0 0 21 21" fill="none" xmlns="http://www.w3.org/2000/svg">
<g clip-path="url(#clip0_86_25)">
<path d="M16.7847 0.0227051H4.28467C3.85318 0.0227051 3.50342 0.372471 3.50342 0.803955V19.2415C3.50342 19.6729 3.85318 20.0227 4.28467 20.0227H13.0347C13.2419 20.0227 13.4406 19.9404 13.5871 19.7939L17.3371 16.0439C17.4836 15.8974 17.5659 15.6986 17.5659 15.4915V0.803955C17.5659 0.372471 17.2162 0.0227051 16.7847 0.0227051ZM16.0034 15.1679L12.7111 18.4602H5.06592V1.58521H16.0034V15.1679Z" fill="white"/>
<path d="M13.6597 3.14771H7.40967C6.97818 3.14771 6.62842 3.49747 6.62842 3.92896C6.62842 4.36044 6.97818 4.71021 7.40967 4.71021H13.6597C14.0912 4.71021 14.4409 4.36044 14.4409 3.92896C14.4409 3.49747 14.0912 3.14771 13.6597 3.14771Z" fill="white"/>
<path d="M13.6597 6.27271H7.40967C6.97818 6.27271 6.62842 6.62247 6.62842 7.05396C6.62842 7.48544 6.97818 7.83521 7.40967 7.83521H13.6597C14.0912 7.83521 14.4409 7.48544 14.4409 7.05396C14.4409 6.62247 14.0912 6.27271 13.6597 6.27271Z" fill="white"/>
</g>
<defs>
<clipPath id="clip0_86_25">
<rect width="20" height="20" fill="white" transform="translate(0.534668 0.0227051)"/>
</clipPath>
</defs>
</svg>
