<svg width="21" height="21" viewBox="0 0 21 21" fill="none" xmlns="http://www.w3.org/2000/svg">
<g clip-path="url(#clip0_89_38)">
<path d="M20.3786 18.1401L19.7644 14.6861C19.6005 13.7607 18.7212 12.8519 17.8018 12.6585L14.1733 11.8925C14.0086 11.6991 13.8394 11.5442 13.6566 11.4218C13.6392 11.2435 13.6528 11.1106 13.7034 11.001C13.887 10.5961 14.029 10.2206 14.1325 9.85197C14.3743 9.74772 14.508 9.54752 14.5593 9.46593C14.6455 9.3375 14.7165 9.1985 14.7769 9.05572C14.9401 8.67043 15.0134 8.29119 15.0927 7.89005C15.1229 7.73518 15.1713 7.58409 15.2272 7.41184L15.3118 7.13308C15.4062 6.8037 15.3533 6.47205 15.1645 6.21973C15.1267 6.17138 15.0859 6.1253 15.0398 6.08375C15.2445 5.01553 15.1327 3.99264 14.7089 3.04454C14.1582 1.8139 13.2766 1.02142 12.089 0.692041C11.6538 0.569657 11.2028 0.479757 10.7473 0.424609L10.7458 0.260674L10.6038 0.253875C10.3424 0.239522 10.0817 0.235744 9.81884 0.235744L9.53101 0.237255C9.36481 0.240277 9.19332 0.257653 9.01956 0.289382L8.83976 0.0227051L8.13794 0.478246C8.00121 0.564369 7.86447 0.651246 7.73528 0.745678C7.55473 0.878639 7.41044 1.03653 7.30467 1.21633C6.93979 1.31076 6.60285 1.49358 6.27725 1.77537C6.23192 1.81541 6.19037 1.85771 6.13522 1.92344L5.74239 2.40542L5.88215 2.54518C5.74616 2.85416 5.70915 3.14955 5.77412 3.35125C5.58525 4.22003 5.61471 5.10769 5.86855 6.13738C5.72199 6.27941 5.63133 6.46903 5.60036 6.70247C5.55503 7.02882 5.52859 7.45792 5.73105 7.88551C5.82398 8.08193 5.88366 8.28742 5.95845 8.54352L6.00075 8.68705C6.05288 8.86156 6.12087 9.0323 6.19642 9.19925C6.25912 9.3375 6.34373 9.4682 6.44798 9.59285C6.53562 9.69484 6.63307 9.77567 6.73732 9.83459C6.84611 10.2274 6.99871 10.5991 7.19287 10.9429C7.18909 11.1272 7.18153 11.3085 7.17473 11.4936L7.1702 11.6099C7.03951 11.6938 6.92619 11.7897 6.8242 11.8781L3.12775 12.657C2.20911 12.8504 1.32824 13.7584 1.16506 14.6846L0.550122 18.1386C0.461733 18.6327 0.579585 19.1033 0.881013 19.4652C1.18244 19.8255 1.62514 20.0219 2.12676 20.0219H18.8012C19.3029 20.0219 19.7456 19.8225 20.0462 19.4652C20.3484 19.1056 20.4678 18.6349 20.3786 18.1401ZM7.14376 12.6411L7.28956 12.6056L7.27672 12.5406C7.40742 12.4281 7.55851 12.3352 7.69298 12.2573C7.71489 12.243 7.73453 12.2294 7.77683 12.1954C7.90149 12.1304 7.96645 12.033 7.97401 11.829L7.98307 11.6167C7.9929 11.3825 8.00196 11.1514 8.00649 10.9187C8.00801 10.8265 7.98232 10.723 7.93548 10.6369C7.68845 10.1806 7.52602 9.73261 7.41799 9.20303L7.27219 9.2476L7.4127 9.19246L7.30618 9.04061L7.15283 9.13504C7.14376 9.13504 7.11808 9.12824 7.06822 9.06932C7.01307 9.0051 6.96774 8.93484 6.93677 8.86534C6.87633 8.73238 6.82118 8.59791 6.78039 8.45815L6.73959 8.31763C6.6648 8.06078 6.58699 7.79561 6.46687 7.54027C6.35657 7.30834 6.37395 7.04318 6.40568 6.81427C6.41852 6.72286 6.42456 6.67678 6.6716 6.65638L6.8582 6.64052L6.8038 6.46223C6.41097 5.17342 6.36413 4.16715 6.65347 3.20092L6.55753 3.16541C6.55526 2.9841 6.68444 2.67738 6.96623 2.38804L6.91108 2.30948C7.16794 2.11079 7.43235 1.99974 7.71413 1.96877C7.80252 1.95894 7.91508 1.88944 7.94152 1.78897C7.98383 1.63485 8.07297 1.50869 8.21576 1.40368C8.32228 1.32511 8.43333 1.25486 8.54514 1.18384L8.59651 1.25788C8.92589 1.13172 9.22505 1.06448 9.50834 1.05391L9.59371 1.16798L9.74254 1.171C10.4648 1.18082 11.1817 1.28356 11.8714 1.47696C12.8301 1.74439 13.5161 2.36689 13.9678 3.38072C14.3826 4.30766 14.4415 5.2754 14.1484 6.34362L14.1166 6.45543L14.091 6.59746L14.2284 6.64278L14.3629 6.65034C14.4105 6.65034 14.477 6.66167 14.5155 6.71304C14.551 6.75988 14.5571 6.83014 14.5314 6.91399L14.4528 7.17387C14.3939 7.36123 14.335 7.54707 14.2904 7.77295C14.2232 8.11517 14.1605 8.43851 14.0305 8.74522C13.989 8.84117 13.9421 8.93711 13.884 9.02399C13.8371 9.095 13.8152 9.1086 13.8175 9.11087C13.8114 9.10935 13.7835 9.10256 13.7026 9.04892L13.5138 8.91822L13.4458 9.25289C13.3529 9.69786 13.1942 10.1594 12.9631 10.6694C12.7795 11.0728 12.8316 11.5026 12.9298 11.8887L13.0001 11.9846L13.0439 12.005C13.167 12.0655 13.2849 12.1516 13.4194 12.2823C13.4858 12.3442 13.5523 12.4092 13.6105 12.4832C13.6263 12.5021 13.6422 12.5202 13.6664 12.5467L13.6619 12.6177L13.9935 12.688C13.8908 12.799 13.788 12.9025 13.6807 12.9977C13.4692 13.1888 13.2282 13.3656 12.9676 13.525C12.6443 13.7237 12.296 13.8831 11.9349 13.9987C11.4423 14.1596 10.9467 14.2389 10.4648 14.2389C9.89816 14.2389 9.3361 14.1369 8.79519 13.9382C8.44164 13.8053 8.10319 13.6338 7.79043 13.4245C7.62952 13.3142 7.47465 13.1971 7.32658 13.0702C7.19438 12.9569 7.06444 12.83 6.93374 12.6857L7.14376 12.6411ZM19.4252 18.9454C19.2817 19.1184 19.0604 19.2129 18.8027 19.2129H15.6117V17.3778C15.6117 17.155 15.4296 16.9729 15.2053 16.9729C14.9816 16.9729 14.7996 17.155 14.7996 17.3778V19.2129H6.12994V17.3778C6.12994 17.155 5.94787 16.9729 5.72426 16.9729C5.50064 16.9729 5.31782 17.155 5.31782 17.3778V19.2129H2.12676C1.86915 19.2129 1.6478 19.1184 1.50351 18.9454C1.35922 18.7724 1.30407 18.5382 1.3494 18.2844L1.96434 14.8274C2.07161 14.2223 2.69336 13.5817 3.29546 13.4548L6.02644 12.8783C6.20548 13.108 6.41097 13.3263 6.65196 13.5477C6.91486 13.7894 7.19362 14.004 7.4807 14.1853C8.38725 14.7519 9.4192 15.051 10.4648 15.051C11.4287 15.051 12.3927 14.7904 13.2539 14.2971C13.6641 14.0614 14.0456 13.7766 14.3856 13.4442C14.5805 13.2546 14.7474 13.0695 14.8993 12.8768L17.6341 13.4548C18.2354 13.5817 18.8564 14.2246 18.9644 14.8274L19.5786 18.2844C19.6247 18.5382 19.5703 18.7717 19.4252 18.9454Z" fill="white"/>
</g>
<defs>
<clipPath id="clip0_89_38">
<rect width="20" height="20" fill="white" transform="translate(0.464844 0.0227051)"/>
</clipPath>
</defs>
</svg>
