<svg width="20" height="21" viewBox="0 0 20 21" fill="none" xmlns="http://www.w3.org/2000/svg">
<g clip-path="url(#clip0_87_35)">
<path d="M19.1668 10.0227C19.1668 15.0853 15.0627 19.1894 10.0002 19.1894C4.93755 19.1894 0.833496 15.0853 0.833496 10.0227C0.833496 4.96011 4.93755 0.856049 10.0002 0.856049C15.0627 0.856049 19.1668 4.96011 19.1668 10.0227ZM2.50585 10.0227C2.50585 14.1617 5.86117 17.517 10.0002 17.517C14.1392 17.517 17.4945 14.1617 17.4945 10.0227C17.4945 5.88372 14.1392 2.52841 10.0002 2.52841C5.86117 2.52841 2.50585 5.88372 2.50585 10.0227Z" fill="white"/>
<path d="M9.99984 4.18936C9.53959 4.18936 9.1665 4.56245 9.1665 5.02269V10.4116C9.1665 10.4116 9.1665 10.6289 9.27209 10.7923C9.34275 10.9309 9.45292 11.0513 9.59767 11.1349L13.4475 13.3576C13.8461 13.5877 14.3558 13.4511 14.5858 13.0525C14.8159 12.6539 14.6794 12.1443 14.2808 11.9142L10.8332 9.92369V5.02269C10.8332 4.56246 10.4601 4.18936 9.99984 4.18936Z" fill="white"/>
</g>
<defs>
<clipPath id="clip0_87_35">
<rect width="20" height="20" fill="white" transform="translate(0 0.0227051)"/>
</clipPath>
</defs>
</svg>
