<svg width="33" height="34" viewBox="0 0 33 34" fill="none" xmlns="http://www.w3.org/2000/svg">
<path d="M16.4161 4.38721C14.4266 4.38848 12.4824 4.98085 10.8302 6.08911C9.1757 7.1992 7.88702 8.77446 7.12678 10.6161C6.36542 12.4597 6.16571 14.4872 6.55272 16.4439C6.93905 18.3995 7.89533 20.1971 9.30116 21.6104C11.1229 23.4379 15.4101 26.0815 15.6639 28.8586C15.7019 29.2735 16.0026 29.6132 16.4161 29.6132C16.8296 29.6132 17.1313 29.2735 17.1683 28.8586C17.4219 26.0815 21.7059 23.4424 23.5266 21.616C24.934 20.2032 25.8918 18.4055 26.2794 16.4493C26.6677 14.4921 26.4688 12.4637 25.7078 10.6192C24.9478 8.77662 23.659 7.20048 22.004 6.08979C20.3513 4.9809 18.4063 4.38828 16.4161 4.38721Z" stroke="#A86540" stroke-width="2.04535" stroke-linecap="round" stroke-linejoin="round"/>
<path d="M16.4164 17.9548C15.4762 17.9547 14.5745 17.5812 13.9095 16.9164C13.3295 16.3365 12.9686 15.5733 12.8882 14.7571C12.8078 13.9408 13.0129 13.1219 13.4686 12.4399C13.9242 11.7579 14.6023 11.255 15.3872 11.0169C16.1721 10.7788 17.0153 10.8202 17.773 11.1341C18.5308 11.448 19.1563 12.0149 19.543 12.7383C19.9297 13.4616 20.0535 14.2967 19.8935 15.1011C19.7335 15.9056 19.2995 16.6297 18.6655 17.15C18.0315 17.6704 17.2366 17.9548 16.4164 17.9548Z" stroke="#A86540" stroke-width="2.04535" stroke-linecap="round" stroke-linejoin="round"/>
</svg>
