<svg width="25" height="24" viewBox="0 0 25 24" fill="none" xmlns="http://www.w3.org/2000/svg">
<path d="M23.3376 12.0001C23.3376 18.0003 18.4735 22.8645 12.4733 22.8645C6.47304 22.8645 1.60889 18.0003 1.60889 12.0001C1.60889 5.99989 6.47304 1.13574 12.4733 1.13574C18.4735 1.13574 23.3376 5.99989 23.3376 12.0001ZM3.59097 12.0001C3.59097 16.9057 7.56771 20.8824 12.4733 20.8824C17.3788 20.8824 21.3556 16.9057 21.3556 12.0001C21.3556 7.09457 17.3788 3.11783 12.4733 3.11783C7.56771 3.11783 3.59097 7.09457 3.59097 12.0001Z" fill="#A86540"/>
<path d="M12.473 5.08594C11.9275 5.08594 11.4854 5.52813 11.4854 6.07361V12.4606C11.4854 12.4606 11.4854 12.7181 11.6105 12.9117C11.6942 13.076 11.8248 13.2187 11.9964 13.3178L16.5592 15.9522C17.0316 16.2249 17.6357 16.063 17.9084 15.5906C18.1811 15.1182 18.0193 14.5141 17.5469 14.2414L13.4607 11.8823V6.07361C13.4607 5.52814 13.0185 5.08594 12.473 5.08594Z" fill="#A86540"/>
</svg>
