<svg width="27" height="21" viewBox="0 0 27 21" fill="none" xmlns="http://www.w3.org/2000/svg">
<path d="M19.5404 19.5845L19.5404 20.5845L20.5404 20.5845L20.5404 19.5845L19.5404 19.5845ZM20.2475 1.17034C19.857 0.779812 19.2238 0.779812 18.8333 1.17034L12.4693 7.5343C12.0788 7.92482 12.0788 8.55799 12.4693 8.94851C12.8598 9.33904 13.493 9.33904 13.8835 8.94851L19.5404 3.29166L25.1972 8.94851C25.5878 9.33903 26.2209 9.33903 26.6114 8.94851C27.002 8.55799 27.002 7.92482 26.6114 7.5343L20.2475 1.17034ZM0.965819 20.5845L19.5404 20.5845L19.5404 18.5845L0.965819 18.5845L0.965819 20.5845ZM20.5404 19.5845L20.5404 1.87744L18.5404 1.87744L18.5404 19.5845L20.5404 19.5845Z" fill="black"/>
</svg>
