<svg width="19" height="19" viewBox="0 0 19 19" fill="none" xmlns="http://www.w3.org/2000/svg">
<g clip-path="url(#clip0_98_338)">
<path fill-rule="evenodd" clip-rule="evenodd" d="M9.93294 0.874512C4.97894 0.874512 0.949219 4.90536 0.949219 9.86076C0.949219 11.826 1.583 13.6486 2.66037 15.1279L1.54067 18.4667L4.99473 17.3628C6.41538 18.3031 8.11073 18.8472 9.93815 18.8472C14.8922 18.8472 18.9219 14.8162 18.9219 9.86092C18.9219 4.90552 14.8922 0.87466 9.93815 0.87466L9.93294 0.874512ZM7.42418 5.43913C7.24994 5.0218 7.11788 5.006 6.8539 4.99527C6.76402 4.99005 6.66385 4.98484 6.55281 4.98484C6.20938 4.98484 5.85031 5.08518 5.63373 5.30703C5.36976 5.57645 4.7148 6.20504 4.7148 7.49414C4.7148 8.78324 5.6549 10.03 5.7816 10.2044C5.91366 10.3786 7.61437 13.0623 10.255 14.1561C12.3201 15.0119 12.9328 14.9326 13.4028 14.8323C14.0893 14.6844 14.9503 14.177 15.1669 13.5643C15.3835 12.9514 15.3834 12.4284 15.3199 12.3174C15.2566 12.2065 15.0822 12.1433 14.8182 12.011C14.5542 11.8789 13.2707 11.245 13.0278 11.1604C12.79 11.0707 12.563 11.1024 12.3836 11.3561C12.13 11.71 11.8818 12.0693 11.6811 12.2858C11.5226 12.4549 11.2637 12.4761 11.0473 12.3862C10.7568 12.2648 9.94353 11.9793 8.93994 11.0865C8.16351 10.3945 7.6354 9.53349 7.48232 9.27466C7.32909 9.01061 7.46651 8.85719 7.58784 8.71465C7.7199 8.55079 7.84661 8.43464 7.97868 8.28137C8.11074 8.12825 8.18468 8.04893 8.26919 7.86927C8.35907 7.69497 8.29556 7.51531 8.23221 7.38321C8.16886 7.25111 7.64076 5.96201 7.42418 5.43913Z" fill="#67C15E"/>
</g>
<defs>
<clipPath id="clip0_98_338">
<rect width="17.9727" height="17.9727" fill="white" transform="translate(0.949219 0.874512)"/>
</clipPath>
</defs>
</svg>
