<svg width="25" height="24" viewBox="0 0 25 24" fill="none" xmlns="http://www.w3.org/2000/svg">
<g clip-path="url(#clip0_101_427)">
<path fill-rule="evenodd" clip-rule="evenodd" d="M12.4128 0.0185547C5.84762 0.0185547 0.507324 5.36034 0.507324 11.9274C0.507324 14.5318 1.34722 16.9471 2.77499 18.9076L1.29113 23.3322L5.86855 21.8692C7.75123 23.1154 9.99796 23.8364 12.4197 23.8364C18.9849 23.8364 24.3252 18.4944 24.3252 11.9276C24.3252 5.36056 18.9849 0.0187515 12.4197 0.0187515L12.4128 0.0185547ZM9.08813 6.06771C8.85722 5.51466 8.68221 5.49372 8.33238 5.4795C8.21326 5.47258 8.08052 5.46567 7.93336 5.46567C7.47824 5.46567 7.00239 5.59865 6.71538 5.89266C6.36555 6.2497 5.49758 7.08273 5.49758 8.79107C5.49758 10.4994 6.74342 12.1516 6.91133 12.3828C7.08634 12.6136 9.34017 16.1702 12.8397 17.6197C15.5763 18.7539 16.3883 18.6487 17.0112 18.5158C17.921 18.3198 19.062 17.6474 19.349 16.8355C19.636 16.0232 19.636 15.3301 19.5518 15.1831C19.4679 15.036 19.2368 14.9523 18.8869 14.777C18.5371 14.6019 16.8361 13.7618 16.5142 13.6498C16.1991 13.5308 15.8983 13.5729 15.6604 13.909C15.3244 14.3781 14.9955 14.8543 14.7295 15.1412C14.5195 15.3652 14.1764 15.3933 13.8896 15.2741C13.5046 15.1133 12.4268 14.7349 11.0969 13.5518C10.0679 12.6348 9.36805 11.4937 9.16518 11.1507C8.96212 10.8007 9.14422 10.5974 9.30501 10.4085C9.48002 10.1914 9.64795 10.0375 9.82296 9.83434C9.99798 9.63141 10.096 9.5263 10.208 9.2882C10.3271 9.05722 10.2429 8.81913 10.159 8.64406C10.075 8.469 9.37515 6.76065 9.08813 6.06771Z" fill="#A86540"/>
</g>
<defs>
<clipPath id="clip0_101_427">
<rect width="23.8179" height="23.8179" fill="white" transform="translate(0.507324 0.0185547)"/>
</clipPath>
</defs>
</svg>
